# xmcd
#
# Track frame offsets:
#	150
#	15422
#	29906
#
# Disc length: 538 seconds
#
# Revision: 1
# Processed by: cddbd v1.5.2PL0 Copyright (c) Steve Scherf et al.
# Submitted via: audiograbber 1.82.02
#
DISCID=1d021803
DTITLE=Melanie Horsnell - Mary Mary
DYEAR=2008
DGENRE=Indie
TTITLE0=Mary Mary
TTITLE1=Christmas In The Suburbs
TTITLE2=Massacre
EXTD=
EXTT0=
EXTT1=
EXTT2=
PLAYORDER=
